<?xml version="1.0" encoding="utf-8"?>
<!-- Generator: Adobe Illustrator 23.0.0, SVG Export Plug-In . SVG Version: 6.00 Build 0)  -->
<svg version="1.1" id="Capa_1" xmlns="http://www.w3.org/2000/svg" xmlns:xlink="http://www.w3.org/1999/xlink" x="0px" y="0px"
	 viewBox="0 0 200 200" style="enable-background:new 0 0 200 200;" xml:space="preserve">
<path id="Fill-8-13_1_" d="M148.1,155.9c-0.8,0.8-0.8,0.8-1.6,0.8h-93c-0.8,0-1.6,0-1.6-0.8c-0.8-0.8-0.8-0.8-0.8-1.6l1.6-86.6h94.6
	l1.6,86.6C148.9,155.1,148.9,155.9,148.1,155.9z M100.4,42.2c7.9,0,14.3,5.6,16.7,12.7H83.7C85.3,47.8,92.4,42.2,100.4,42.2z
	 M160,65.3c0-5.6-4.8-10.3-10.3-10.3l0,0h-19.9c-2.4-16.7-18.3-27.8-35-24.6C82.1,32.7,71.8,42.2,70.2,55H50.3
	C44.8,55,40,59.7,40,65.3l-1.6,89c0,4,1.6,7.9,4,11.1c3.2,3.2,7.2,4.8,11.1,4.8h93c4,0,7.9-1.6,11.1-4.8c2.4-3.2,4-7.2,4-11.1
	L160,65.3z"/>
</svg>
