<?xml version="1.0" encoding="utf-8"?>
<!-- Generator: Adobe Illustrator 23.0.0, SVG Export Plug-In . SVG Version: 6.00 Build 0)  -->
<svg version="1.1" id="Capa_1" xmlns="http://www.w3.org/2000/svg" xmlns:xlink="http://www.w3.org/1999/xlink" x="0px" y="0px"
	 viewBox="0 0 200 200" style="enable-background:new 0 0 200 200;" xml:space="preserve">
<path id="Fill-8-6" d="M85.4,120.8C64,117.6,48.9,97.7,52.1,75.5c2.4-19.1,18.3-32.6,37.4-34.2h4c22.3,0.8,39,19.1,39,40.5
	s-19.1,39-40.5,39C89.4,121.6,87,121.6,85.4,120.8 M161,158.9l-34.2-40.5c7.9-8.7,13.5-19.9,14.3-31c2.4-28.6-18.3-54.1-46.9-57.2
	C65.6,27.8,40.1,48.4,37,77c-1.6,13.5,3.2,27.8,11.9,38.2c8.7,11.1,21.5,17.5,35,19.1c1.6,0,3.2,0,5.6,0c9.5,0,19.1-3.2,27.8-7.9
	l34.2,40.5c1.6,3.2,5.6,4,8.7,2.4s4-5.6,2.4-8.7C161.8,159.7,161.8,159.7,161,158.9"/>
</svg>
