<?xml version="1.0" encoding="utf-8"?>
<!-- Generator: Adobe Illustrator 24.0.1, SVG Export Plug-In . SVG Version: 6.00 Build 0)  -->
<svg version="1.1" id="Capa_1" xmlns="http://www.w3.org/2000/svg" xmlns:xlink="http://www.w3.org/1999/xlink" x="0px" y="0px"
	 viewBox="0 0 200 200" style="enable-background:new 0 0 200 200;" xml:space="preserve">
<g>
	<path d="M46.1,28.6h107.7c7.6,0,13.8,6.2,13.8,13.8v0c0,7.6-6.2,13.8-13.8,13.8H46.1c-7.6,0-13.8-6.2-13.8-13.8v0
		C32.3,34.7,38.5,28.6,46.1,28.6z"/>
	<path d="M46.1,86.2h107.7c7.6,0,13.8,6.2,13.8,13.8v0c0,7.6-6.2,13.8-13.8,13.8H46.1c-7.6,0-13.8-6.2-13.8-13.8v0
		C32.3,92.4,38.5,86.2,46.1,86.2z"/>
	<path d="M46.1,143.9h107.7c7.6,0,13.8,6.2,13.8,13.8v0c0,7.6-6.2,13.8-13.8,13.8H46.1c-7.6,0-13.8-6.2-13.8-13.8v0
		C32.3,150,38.5,143.9,46.1,143.9z"/>
</g>
</svg>
