<?xml version="1.0" encoding="utf-8"?>
<!-- Generator: Adobe Illustrator 25.4.1, SVG Export Plug-In . SVG Version: 6.00 Build 0)  -->
<svg version="1.1" id="Capa_1" xmlns="http://www.w3.org/2000/svg" xmlns:xlink="http://www.w3.org/1999/xlink" x="0px" y="0px"
	 viewBox="0 0 200 200" style="enable-background:new 0 0 200 200;" xml:space="preserve">
<path d="M119.5,100l28.3-28.3c5.4-5.4,5.4-14.1,0-19.5s-14.1-5.4-19.5,0L100,80.5L71.7,52.2c-5.4-5.4-14.1-5.4-19.5,0
	s-5.4,14.1,0,19.5L80.5,100l-28.3,28.3c-5.4,5.4-5.4,14.1,0,19.5c5.4,5.4,14.1,5.4,19.5,0l28.3-28.3l28.3,28.3
	c5.4,5.4,14.1,5.4,19.5,0s5.4-14.1,0-19.5L119.5,100z"/>
</svg>
