<?xml version="1.0" encoding="utf-8"?>
<!-- Generator: Adobe Illustrator 24.0.1, SVG Export Plug-In . SVG Version: 6.00 Build 0)  -->
<svg version="1.1" id="Capa_1" xmlns="http://www.w3.org/2000/svg" xmlns:xlink="http://www.w3.org/1999/xlink" x="0px" y="0px"
	 viewBox="0 0 400 400" style="enable-background:new 0 0 400 400;" xml:space="preserve">
<style type="text/css">
	.st0{fill-rule:evenodd;clip-rule:evenodd;fill:#B01116;}
	.st1{fill:#B01116;}
</style>
<g>
	<path class="st0" d="M17,17.1h366v365.6H17V17.1z M24.8,25.1h350.2v349.8H24.8V25.1z"/>
	<path class="st1" d="M289.5,190.6l-6.2-42.1l-6.2,42.1H289.5z M291.6,205.2h-16.4l-3.3,22.2h-15.2l16.7-100.5h20.5l16.7,100.5
		h-15.6L291.6,205.2z M218.1,171.7h7.9c3,0,5.3-0.8,6.9-2.4c1.6-1.6,2.5-4,2.5-6.9v-11.7c0-2.9-0.8-5.3-2.5-6.9
		c-1.6-1.6-4-2.4-6.9-2.4h-7.9V171.7z M237.2,227.6L226.1,186h-7.9v41.6h-15.2V127.1h24c7.3,0,13.1,2.1,17.5,6.5
		c4.4,4.4,6.5,10.2,6.5,17.5v11.1c0,4.6-0.9,8.6-2.8,12.2c-1.9,3.6-4.4,6.4-7.8,8.3l12.8,45h-15.9V227.6z M195.8,126.9l-20.4,58.5
		v42.1h-15.2v-42.1l-20.5-58.5h16.3l11.8,38.4l12-38.4H195.8z M114.2,228.9c-4.8,0-9.1-1.1-12.8-3.2c-3.7-2.1-6.6-5-8.7-8.7
		s-3-7.9-3-12.8v-3.6l14.7-1.6v3.7c0,3.6,0.9,6.5,2.6,8.6c1.7,2.1,4.1,3.2,7.2,3.2c3,0,5.3-0.9,7.2-2.6c1.7-1.7,2.6-4.1,2.6-7
		c0-3.3-0.9-6.4-2.8-9.4c-1.9-2.9-5.6-7.2-11.1-12.3c-7.5-7.2-12.6-13-15.4-17.6c-2.8-4.6-4.1-9.8-4.1-15.4c0-7.5,2.1-13.6,6.2-18
		c4.1-4.5,9.8-6.6,16.9-6.6c7.2,0,12.8,2.3,16.9,6.8c4.1,4.5,6.2,10.6,6.2,18.1v2.6l-14.7,1.6v-2.9c0-3.8-0.7-6.8-2.1-8.7
		c-1.5-2-3.6-3-6.2-3c-2.6,0-4.8,0.8-6.2,2.4c-1.5,1.6-2.1,4-2.1,7.2c0,3.2,0.9,6.2,2.9,9.1c2,2.9,5.6,7.2,11.1,12.6
		c7.5,7.4,12.6,13.5,15.4,18c2.8,4.5,4.1,9.5,4.1,15c0,4.8-1.1,9-3,12.8c-2.1,3.7-5,6.6-8.7,8.7C123.3,227.8,119,228.9,114.2,228.9z
		"/>
	<path class="st1" d="M245.8,264.6c0,1.6,0.5,2.9,1.7,3.8c1.2,0.9,2.5,1.3,4.2,1.3c1.6,0,3-0.4,4.4-1.2c1.3-0.8,2.4-2,3.2-3.6
		c0.8-1.6,1.2-3.2,1.2-4.6c0-1.7-0.7-3-1.9-4c-1.2-1.1-2.6-1.6-4.2-1.6c-2.5,0-4.5,1.1-6.1,3C246.6,260,245.8,262.3,245.8,264.6
		 M265.3,273.9h-7.9l0.7-2.5c-1.5,1.1-3,1.9-4.5,2.4c-1.5,0.5-3.2,0.7-5,0.7c-3.2,0-5.8-0.8-7.8-2.4c-2-1.6-3-4-3-7.3
		c0-3.7,1.5-7,4.2-10.1c2.9-3,6.6-4.5,11.3-4.5c4.2,0,7.4,1.2,9.5,3.7l3.4-11.9h8.3L265.3,273.9z M206.5,251h8.1l-0.8,3
		c2-1.3,3.8-2.3,5.6-2.8c1.7-0.5,3.6-0.8,5.6-0.8c2.5,0,4.6,0.5,6.1,1.6c1.5,1.1,2.3,2.5,2.3,4.4c0,0.8-0.4,2.4-1.1,4.5l-3.7,13
		h-8.6l3.8-13c0.5-2,0.8-3,0.9-3.4c0-0.8-0.3-1.5-0.9-1.9c-0.7-0.5-1.6-0.7-2.6-0.7c-1.2,0-2.6,0.4-4.1,1.2c-1.5,0.8-2.6,1.7-3.6,3
		c-0.7,0.9-1.3,2.8-2.3,5.6l-2.6,9.4H200L206.5,251z M189.7,260.7c0-0.3,0-0.5,0-0.7c0-1.7-0.5-3-1.6-3.8c-1.1-0.9-2.4-1.3-4.2-1.3
		c-1.7,0-3.3,0.5-4.6,1.5c-1.3,0.9-2.3,2.4-2.8,4.4L189.7,260.7L189.7,260.7z M196.8,264.4h-21.2c0,0.3,0,0.4,0,0.5
		c0,1.6,0.7,2.8,1.9,3.7c1.2,0.9,2.6,1.5,4.4,1.5c2.8,0,5-1.1,6.6-3.2l7.5,0.9c-1.5,2.3-3.4,3.8-6,5c-2.5,1.1-5.2,1.7-8.2,1.7
		c-4.2,0-7.5-0.9-10.2-2.9c-2.6-2-4-4.5-4-7.8c0-3.2,1.2-6,3.6-8.5c3.2-3.3,7.8-5,13.8-5c3.8,0,6.9,0.9,9.1,2.6
		c2.3,1.7,3.3,4.2,3.3,7.3C197.4,261.9,197.2,263.2,196.8,264.4z M149.2,251h7.9l-1.2,4.4c2.9-3.3,6.1-4.9,9.4-4.9
		c1.2,0,2.5,0.3,3.8,0.7l-3.2,5c-0.8-0.3-1.6-0.3-2.4-0.3c-1.5,0-2.9,0.4-4.4,1.2c-1.5,0.8-2.6,1.9-3.6,3.3
		c-0.8,1.3-1.7,3.4-2.5,6.5l-2,7.2h-8.3L149.2,251z M125.3,255.6l1.3-4.6h4.1l1.1-3.6l0,0l1.2-4.2h8.3l-1.5,5.4l0,0l-0.7,2.4h5
		l-1.3,4.6h-5.2l-2.8,9.7c-0.5,1.7-0.8,2.8-0.8,2.9c0,0.5,0.3,0.8,0.7,1.1c0.4,0.3,1.2,0.4,2.3,0.4c0.4,0,1.3,0,2.8-0.1l-1.3,4.6
		c-1.5,0.3-2.9,0.3-4.5,0.3c-2.9,0-5.2-0.4-6.5-1.3c-1.3-0.8-2-2-2-3.6c0-0.7,0.4-2.4,1.2-4.9l2.6-9.3h-4.1V255.6z"/>
</g>
</svg>
