<?xml version="1.0" encoding="utf-8"?>
<!-- Generator: Adobe Illustrator 16.0.0, SVG Export Plug-In . SVG Version: 6.00 Build 0)  -->
<!DOCTYPE svg PUBLIC "-//W3C//DTD SVG 1.1//EN" "http://www.w3.org/Graphics/SVG/1.1/DTD/svg11.dtd">
<svg version="1.1" id="Layer_1" xmlns="http://www.w3.org/2000/svg" xmlns:xlink="http://www.w3.org/1999/xlink" x="0px" y="0px"
	 width="100px" height="100px" viewBox="0 0 100 100" enable-background="new 0 0 100 100" xml:space="preserve">
<g>
	<path fill="#D3255C" d="M36.13,59.182c-0.303,0-0.575,0.121-0.818,0.365c-0.243,0.242-0.364,0.516-0.364,0.816
		c0,0.305,0.121,0.576,0.364,0.818c0.243,0.244,0.516,0.365,0.818,0.365c0.301,0,0.573-0.121,0.817-0.365
		c0.242-0.242,0.364-0.514,0.364-0.818c0-0.301-0.121-0.574-0.364-0.816C36.703,59.303,36.431,59.182,36.13,59.182"/>
	<path fill="#D3255C" d="M24.999,58.74c0.001-0.02,0.006-0.037,0.006-0.059c0-0.787-0.641-1.428-1.429-1.428
		c-0.79,0-1.429,0.641-1.429,1.428c0,0.051,0.01,0.098,0.015,0.146v16.9h10.717v-2.838h-7.88V58.74z"/>
	<path fill="#D3255C" d="M61.77,64.639c-0.572-0.617-1.278-1.109-2.118-1.479c-0.842-0.367-1.807-0.551-2.896-0.551
		c-1.091,0-1.993,0.145-2.71,0.434s-1.283,0.604-1.703,0.945c-0.499,0.406-0.879,0.867-1.141,1.379
		c-0.474-0.762-1.028-1.34-1.666-1.734c-0.636-0.393-1.244-0.664-1.822-0.807c-0.683-0.17-1.372-0.242-2.069-0.217
		c-0.695-0.012-1.309,0.053-1.841,0.197c-0.531,0.145-0.986,0.309-1.368,0.492c-0.434,0.211-0.82,0.453-1.162,0.729v-1.063h-2.365
		v12.764h2.365v-6.381c0.039-0.816,0.223-1.545,0.551-2.188c0.132-0.275,0.306-0.543,0.523-0.797
		c0.217-0.258,0.476-0.49,0.777-0.701c0.302-0.209,0.66-0.379,1.073-0.504c0.414-0.123,0.896-0.186,1.447-0.186
		c0.552,0,1.035,0.063,1.448,0.186c0.414,0.125,0.771,0.293,1.074,0.504c0.302,0.209,0.557,0.443,0.769,0.701
		c0.209,0.254,0.386,0.521,0.531,0.797c0.328,0.643,0.514,1.371,0.552,2.188v6.381h2.363v-6.381c0.04-0.816,0.224-1.545,0.552-2.188
		c0.133-0.275,0.306-0.543,0.523-0.797c0.217-0.258,0.476-0.49,0.777-0.701c0.303-0.209,0.66-0.379,1.073-0.504
		c0.414-0.123,0.896-0.186,1.448-0.186s1.034,0.063,1.449,0.186c0.412,0.125,0.77,0.293,1.071,0.504
		c0.303,0.209,0.559,0.443,0.77,0.701c0.21,0.254,0.386,0.521,0.531,0.797c0.328,0.643,0.512,1.371,0.551,2.188v6.381h2.365v-6.381
		c0-0.895-0.146-1.748-0.433-2.563C62.77,65.971,62.34,65.256,61.77,64.639"/>
	<path fill="#D3255C" d="M75.115,70.953c-0.25,0.518-0.581,0.984-0.994,1.396c-0.414,0.414-0.881,0.746-1.399,0.996
		s-1.054,0.375-1.605,0.375s-1.087-0.125-1.604-0.375c-0.521-0.248-0.985-0.582-1.398-0.996c-0.414-0.412-0.746-0.879-0.996-1.396
		c-0.25-0.52-0.374-1.055-0.374-1.605c0-0.553,0.124-1.088,0.374-1.605c0.249-0.52,0.582-0.986,0.996-1.4
		c0.413-0.412,0.878-0.744,1.398-0.994c0.518-0.248,1.053-0.373,1.604-0.373s1.087,0.125,1.605,0.373
		c0.519,0.25,0.985,0.582,1.399,0.994c0.413,0.414,0.743,0.881,0.994,1.4c0.251,0.518,0.375,1.053,0.375,1.605
		C75.49,69.898,75.366,70.434,75.115,70.953 M75.49,62.965v1.26c-0.197-0.17-0.425-0.352-0.682-0.543
		c-0.255-0.189-0.559-0.363-0.904-0.521c-0.348-0.158-0.749-0.289-1.203-0.395c-0.451-0.105-0.98-0.156-1.585-0.156
		c-0.932,0-1.807,0.176-2.621,0.531s-1.526,0.836-2.137,1.447c-0.609,0.611-1.095,1.324-1.449,2.139
		c-0.354,0.813-0.53,1.688-0.53,2.621c0,0.932,0.177,1.805,0.53,2.619c0.354,0.814,0.84,1.527,1.449,2.137
		c0.61,0.611,1.322,1.096,2.137,1.449s1.689,0.531,2.621,0.531c0.604,0,1.153-0.066,1.646-0.197
		c0.493-0.131,0.927-0.285,1.299-0.463c0.375-0.178,0.683-0.354,0.926-0.531c0.244-0.178,0.41-0.318,0.504-0.424v1.258h2.363V62.965
		H75.49z"/>
	<rect x="34.947" y="62.965" fill="#D3255C" width="2.364" height="12.764"/>
	<path fill="#2C368B" d="M42.152,86.688c-0.266,0.615-0.626,1.148-1.079,1.602c-0.455,0.455-0.988,0.814-1.603,1.08
		c-0.612,0.264-1.268,0.396-1.965,0.396c-0.696,0-1.351-0.133-1.965-0.396c-0.613-0.266-1.146-0.625-1.602-1.08
		c-0.455-0.453-0.813-0.986-1.078-1.602c-0.266-0.613-0.397-1.268-0.397-1.965c0-0.695,0.132-1.352,0.397-1.965
		c0.265-0.613,0.623-1.146,1.078-1.602s0.988-0.813,1.602-1.078c0.614-0.264,1.269-0.398,1.965-0.398
		c0.697,0,1.354,0.135,1.965,0.398c0.614,0.266,1.147,0.623,1.603,1.078c0.454,0.455,0.813,0.988,1.079,1.602
		c0.264,0.613,0.397,1.27,0.397,1.965C42.55,85.42,42.416,86.074,42.152,86.688 M42.992,79.271
		c-0.705-0.713-1.525-1.275-2.465-1.693c-0.94-0.418-1.946-0.623-3.022-0.623c-1.075,0-2.082,0.203-3.021,0.613
		c-0.938,0.408-1.76,0.965-2.465,1.668c-0.704,0.705-1.261,1.527-1.669,2.465c-0.409,0.939-0.614,1.947-0.614,3.021
		c0,1.076,0.205,2.084,0.614,3.021c0.408,0.939,0.965,1.762,1.669,2.465c0.704,0.705,1.526,1.262,2.465,1.67
		c0.939,0.408,1.946,0.613,3.021,0.613c1.076,0,2.082-0.205,3.022-0.613c0.938-0.408,1.76-0.965,2.465-1.67
		c0.704-0.703,1.259-1.525,1.669-2.465c0.409-0.939,0.614-1.945,0.614-3.021c0-1.043-0.205-2.035-0.614-2.975
		S43.696,79.984,42.992,79.271"/>
	<path fill="#2C368B" d="M50.512,81.156c0.454-0.455,0.988-0.813,1.602-1.078c0.612-0.266,1.268-0.398,1.965-0.398
		c0.682,0,1.317,0.096,1.907,0.285c0.591,0.189,1.105,0.451,1.545,0.783c0.439,0.334,0.784,0.723,1.034,1.17
		c0.249,0.447,0.375,0.928,0.375,1.441h2.793c0-0.877-0.201-1.707-0.603-2.486c-0.4-0.779-0.95-1.457-1.646-2.033
		c-0.696-0.574-1.507-1.033-2.431-1.375c-0.923-0.34-1.916-0.512-2.977-0.512c-1.075,0-2.082,0.205-3.021,0.615
		c-0.938,0.408-1.761,0.965-2.464,1.67c-0.705,0.703-1.262,1.525-1.67,2.465c-0.409,0.939-0.613,1.947-0.613,3.021
		s0.204,2.084,0.613,3.021c0.408,0.938,0.965,1.758,1.67,2.463c0.704,0.705,1.525,1.262,2.464,1.672
		c0.938,0.408,1.945,0.613,3.021,0.613c1.06,0,2.054-0.17,2.977-0.512c0.923-0.34,1.734-0.797,2.431-1.373s1.246-1.254,1.646-2.033
		c0.401-0.781,0.603-1.609,0.603-2.488h-2.793c0,0.516-0.126,0.996-0.375,1.443c-0.25,0.445-0.595,0.836-1.034,1.168
		c-0.439,0.336-0.954,0.596-1.545,0.785c-0.59,0.189-1.227,0.283-1.907,0.283c-0.696,0-1.353-0.133-1.965-0.396
		c-0.613-0.266-1.147-0.625-1.602-1.08c-0.454-0.453-0.814-0.986-1.079-1.602c-0.265-0.613-0.398-1.268-0.398-1.963
		c0-0.697,0.134-1.354,0.398-1.967C49.697,82.145,50.058,81.611,50.512,81.156"/>
	<path fill="#2C368B" d="M74.985,86.574c-0.287,0.6-0.67,1.137-1.147,1.613c-0.477,0.477-1.016,0.861-1.613,1.146
		c-0.6,0.289-1.216,0.432-1.852,0.432c-0.635,0-1.253-0.143-1.85-0.432c-0.598-0.285-1.137-0.67-1.613-1.146
		c-0.478-0.477-0.861-1.014-1.147-1.613c-0.287-0.598-0.432-1.215-0.432-1.852s0.146-1.252,0.432-1.852
		c0.287-0.598,0.67-1.137,1.147-1.613c0.477-0.477,1.015-0.859,1.613-1.146c0.597-0.287,1.215-0.432,1.85-0.432
		c0.636,0,1.254,0.145,1.852,0.432s1.137,0.67,1.613,1.146c0.478,0.477,0.86,1.016,1.147,1.613c0.287,0.6,0.433,1.217,0.433,1.852
		C75.418,85.359,75.273,85.977,74.985,86.574 M75.418,78.818c-0.228-0.197-0.489-0.408-0.785-0.625
		c-0.293-0.221-0.644-0.42-1.043-0.604c-0.403-0.182-0.864-0.332-1.387-0.453c-0.522-0.123-1.134-0.182-1.83-0.182
		c-1.075,0-2.081,0.203-3.02,0.613c-0.94,0.408-1.76,0.965-2.466,1.668c-0.704,0.705-1.261,1.527-1.669,2.465
		c-0.41,0.939-0.614,1.947-0.614,3.023c0,1.074,0.204,2.082,0.614,3.02c0.407,0.939,0.965,1.76,1.669,2.465
		c0.705,0.705,1.525,1.262,2.466,1.67c0.939,0.408,1.946,0.613,3.02,0.613c0.696,0,1.33-0.074,1.898-0.227
		c0.566-0.152,1.066-0.33,1.497-0.533c0.433-0.205,0.788-0.408,1.068-0.613s0.474-0.367,0.58-0.488v1.453h2.725V77.365h-2.725
		L75.418,78.818L75.418,78.818z"/>
	<path fill="#2C368B" d="M82.586,70.807c0-0.752-0.61-1.361-1.363-1.361c-0.752,0-1.363,0.609-1.363,1.361
		c0,0.006,0.001,0.01,0.001,0.014h-0.001v21.264h2.725V70.828C82.584,70.82,82.586,70.816,82.586,70.807"/>
	<polygon fill="#2C368B" points="17.414,72.457 17.414,92.084 29.772,92.084 29.772,88.811 20.686,88.811 20.686,72.457 	"/>
	
		<linearGradient id="SVGID_1_" gradientUnits="userSpaceOnUse" x1="169.3848" y1="353.8203" x2="190.9609" y2="353.8203" gradientTransform="matrix(1 0 0 1 -137.1953 -321.1104)">
		<stop  offset="0" style="stop-color:#313178"/>
		<stop  offset="0.9677" style="stop-color:#2C3589"/>
		<stop  offset="1" style="stop-color:#2B368A"/>
	</linearGradient>
	<path fill="url(#SVGID_1_)" d="M32.248,14.773l-0.059,0.017v37.495h21.576V16.039l-0.008-0.001c0-0.006,0.001-0.011,0.001-0.017
		c0-0.816-0.787-1.493-1.817-1.617l-0.001-0.012l-16.976-1.199c-0.179-0.036-0.364-0.058-0.557-0.058
		C33.217,13.135,32.249,13.869,32.248,14.773"/>
	
		<linearGradient id="SVGID_2_" gradientUnits="userSpaceOnUse" x1="185.7207" y1="354.5371" x2="205.0059" y2="354.5371" gradientTransform="matrix(1 0 0 1 -137.1953 -321.1104)">
		<stop  offset="0" style="stop-color:#16B79D"/>
		<stop  offset="1" style="stop-color:#53C0AE"/>
	</linearGradient>
	<path fill="url(#SVGID_2_)" d="M48.525,9.52v49.828l19.283-3.752c0,0-0.052-41.041,0-42.7c0.052-1.661-0.829-2.033-1.777-2.236
		c-0.948-0.204-13.615-2.812-14.995-3.089c-0.215-0.044-0.425-0.065-0.624-0.065C49.33,7.505,48.525,8.146,48.525,9.52"/>
	
		<linearGradient id="SVGID_3_" gradientUnits="userSpaceOnUse" x1="169.4492" y1="376.915" x2="185.7207" y2="376.915" gradientTransform="matrix(1 0 0 1 -137.1953 -321.1104)">
		<stop  offset="0" style="stop-color:#FAAB31"/>
		<stop  offset="0.5875" style="stop-color:#F8A127"/>
		<stop  offset="0.9892" style="stop-color:#F7981D"/>
	</linearGradient>
	<polygon fill="url(#SVGID_3_)" points="48.525,52.266 34.998,52.275 32.255,52.264 48.497,59.346 48.498,59.346 48.525,59.314 	"/>
</g>
</svg>
