<?xml version="1.0" encoding="utf-8"?>
<!-- Generator: Adobe Illustrator 25.4.1, SVG Export Plug-In . SVG Version: 6.00 Build 0)  -->
<svg version="1.1" id="Layer_1" xmlns="http://www.w3.org/2000/svg" xmlns:xlink="http://www.w3.org/1999/xlink" x="0px" y="0px"
	 viewBox="0 0 100 100" style="enable-background:new 0 0 100 100;" xml:space="preserve">
<style type="text/css">
	.st0{fill:#FFFFFF;}
	.st1{fill:#808080;}
	.st2{fill:#E1E1E1;}
</style>
<path class="st0" d="M36.1,59.2c-0.3,0-0.6,0.1-0.8,0.4c-0.2,0.2-0.4,0.5-0.4,0.8s0.1,0.6,0.4,0.8c0.2,0.2,0.5,0.4,0.8,0.4
	s0.6-0.1,0.8-0.4c0.2-0.2,0.4-0.5,0.4-0.8s-0.1-0.6-0.4-0.8C36.7,59.3,36.4,59.2,36.1,59.2"/>
<path class="st0" d="M25,58.7L25,58.7c0-0.8-0.6-1.5-1.4-1.5s-1.4,0.6-1.4,1.4c0,0.1,0,0.1,0,0.1v16.9h10.7v-2.8H25
	C25,72.9,25,58.7,25,58.7z"/>
<path class="st0" d="M61.8,64.6c-0.6-0.6-1.3-1.1-2.1-1.5s-1.8-0.6-2.9-0.6c-1.1,0-2,0.1-2.7,0.4s-1.3,0.6-1.7,0.9
	c-0.5,0.4-0.9,0.9-1.1,1.4c-0.5-0.8-1-1.3-1.7-1.7c-0.6-0.4-1.2-0.7-1.8-0.8c-0.7-0.2-1.4-0.2-2.1-0.2c-0.7,0-1.3,0.1-1.8,0.2
	c-0.5,0.1-1,0.3-1.4,0.5s-0.8,0.5-1.2,0.7V63h-2.4v12.8h2.4v-6.4c0-0.8,0.2-1.5,0.6-2.2c0.1-0.3,0.3-0.5,0.5-0.8s0.5-0.5,0.8-0.7
	s0.7-0.4,1.1-0.5c0.4-0.1,0.9-0.2,1.4-0.2c0.6,0,1,0.1,1.4,0.2s0.8,0.3,1.1,0.5s0.6,0.4,0.8,0.7c0.2,0.3,0.4,0.5,0.5,0.8
	c0.3,0.6,0.5,1.4,0.6,2.2v6.4h2.4v-6.4c0-0.8,0.2-1.5,0.6-2.2c0.1-0.3,0.3-0.5,0.5-0.8s0.5-0.5,0.8-0.7s0.7-0.4,1.1-0.5
	c0.4-0.1,0.9-0.2,1.4-0.2s1,0.1,1.4,0.2s0.8,0.3,1.1,0.5s0.6,0.4,0.8,0.7c0.2,0.3,0.4,0.5,0.5,0.8c0.3,0.6,0.5,1.4,0.6,2.2v6.4h2.4
	v-6.4c0-0.9-0.1-1.7-0.4-2.6C62.8,66,62.3,65.3,61.8,64.6"/>
<path class="st0" d="M75.1,71c-0.2,0.5-0.6,1-1,1.4s-0.9,0.7-1.4,1s-1.1,0.4-1.6,0.4s-1.1-0.1-1.6-0.4c-0.5-0.2-1-0.6-1.4-1
	s-0.7-0.9-1-1.4c-0.2-0.5-0.4-1.1-0.4-1.6c0-0.6,0.1-1.1,0.4-1.6c0.2-0.5,0.6-1,1-1.4s0.9-0.7,1.4-1c0.5-0.2,1.1-0.4,1.6-0.4
	s1.1,0.1,1.6,0.4c0.5,0.2,1,0.6,1.4,1s0.7,0.9,1,1.4s0.4,1.1,0.4,1.6S75.4,70.4,75.1,71 M75.5,63v1.3c-0.2-0.2-0.4-0.4-0.7-0.5
	c-0.3-0.2-0.6-0.4-0.9-0.5c-0.3-0.2-0.7-0.3-1.2-0.4c-0.5-0.1-1-0.2-1.6-0.2c-0.9,0-1.8,0.2-2.6,0.5S67,64,66.4,64.6
	s-1.1,1.3-1.4,2.1c-0.4,0.8-0.5,1.7-0.5,2.6s0.2,1.8,0.5,2.6c0.4,0.8,0.8,1.5,1.4,2.1s1.3,1.1,2.1,1.4s1.7,0.5,2.6,0.5
	c0.6,0,1.2-0.1,1.6-0.2c0.5-0.1,0.9-0.3,1.3-0.5s0.7-0.4,0.9-0.5c0.2-0.2,0.4-0.3,0.5-0.4v1.3h2.4V63H75.5z"/>
<rect x="34.9" y="63" class="st0" width="2.4" height="12.8"/>
<path class="st0" d="M42.2,86.7c-0.3,0.6-0.6,1.1-1.1,1.6s-1,0.8-1.6,1.1c-0.6,0.3-1.3,0.4-2,0.4s-1.4-0.1-2-0.4s-1.1-0.6-1.6-1.1
	s-0.8-1-1.1-1.6s-0.4-1.3-0.4-2s0.1-1.4,0.4-2s0.6-1.1,1.1-1.6s1-0.8,1.6-1.1c0.6-0.3,1.3-0.4,2-0.4s1.4,0.1,2,0.4s1.1,0.6,1.6,1.1
	s0.8,1,1.1,1.6s0.4,1.3,0.4,2C42.5,85.4,42.4,86.1,42.2,86.7 M43,79.3c-0.7-0.7-1.5-1.3-2.5-1.7s-1.9-0.6-3-0.6s-2.1,0.2-3,0.6
	s-1.8,1-2.5,1.7s-1.3,1.5-1.7,2.5c-0.4,0.9-0.6,1.9-0.6,3s0.2,2.1,0.6,3s1,1.8,1.7,2.5s1.5,1.3,2.5,1.7s1.9,0.6,3,0.6s2.1-0.2,3-0.6
	s1.8-1,2.5-1.7s1.3-1.5,1.7-2.5c0.4-0.9,0.6-1.9,0.6-3c0-1-0.2-2-0.6-3S43.7,80,43,79.3"/>
<path class="st0" d="M50.5,81.2c0.5-0.5,1-0.8,1.6-1.1c0.6-0.3,1.3-0.4,2-0.4s1.3,0.1,1.9,0.3c0.6,0.2,1.1,0.5,1.5,0.8
	s0.8,0.7,1,1.2c0.2,0.4,0.4,0.9,0.4,1.4h2.8c0-0.9-0.2-1.7-0.6-2.5c-0.4-0.8-1-1.5-1.6-2c-0.7-0.6-1.5-1-2.4-1.4
	c-0.9-0.3-1.9-0.5-3-0.5s-2.1,0.2-3,0.6s-1.8,1-2.5,1.7s-1.3,1.5-1.7,2.5c-0.4,0.9-0.6,1.9-0.6,3s0.2,2.1,0.6,3
	c0.4,0.9,1,1.8,1.7,2.5s1.5,1.3,2.5,1.7c0.9,0.4,1.9,0.6,3,0.6s2.1-0.2,3-0.5s1.7-0.8,2.4-1.4s1.2-1.3,1.6-2
	c0.4-0.8,0.6-1.6,0.6-2.5h-2.8c0,0.5-0.1,1-0.4,1.4c-0.2,0.4-0.6,0.8-1,1.2c-0.4,0.3-1,0.6-1.5,0.8c-0.6,0.2-1.2,0.3-1.9,0.3
	s-1.4-0.1-2-0.4s-1.1-0.6-1.6-1.1s-0.8-1-1.1-1.6s-0.4-1.3-0.4-2s0.1-1.4,0.4-2C49.7,82.1,50.1,81.6,50.5,81.2"/>
<path class="st0" d="M75,86.6c-0.3,0.6-0.7,1.1-1.1,1.6c-0.5,0.5-1,0.9-1.6,1.1c-0.6,0.3-1.2,0.4-1.9,0.4c-0.6,0-1.3-0.1-1.8-0.4
	C68,89,67.5,88.6,67,88.2c-0.5-0.5-0.9-1-1.1-1.6c-0.3-0.6-0.4-1.2-0.4-1.9s0.1-1.3,0.4-1.9s0.7-1.1,1.1-1.6c0.5-0.5,1-0.9,1.6-1.1
	c0.6-0.3,1.2-0.4,1.8-0.4c0.6,0,1.3,0.1,1.9,0.4s1.1,0.7,1.6,1.1c0.5,0.5,0.9,1,1.1,1.6c0.3,0.6,0.4,1.2,0.4,1.9S75.3,86,75,86.6
	 M75.4,78.8c-0.2-0.2-0.5-0.4-0.8-0.6s-0.6-0.4-1-0.6s-0.9-0.3-1.4-0.5C71.7,77,71.1,77,70.4,77c-1.1,0-2.1,0.2-3,0.6
	s-1.8,1-2.5,1.7s-1.3,1.5-1.7,2.5c-0.4,0.9-0.6,1.9-0.6,3s0.2,2.1,0.6,3c0.4,0.9,1,1.8,1.7,2.5c0.7,0.7,1.5,1.3,2.5,1.7
	c0.9,0.4,1.9,0.6,3,0.6c0.7,0,1.3-0.1,1.9-0.2c0.6-0.2,1.1-0.3,1.5-0.5s0.8-0.4,1.1-0.6s0.5-0.4,0.6-0.5v1.5h2.7V77.4h-2.7
	L75.4,78.8L75.4,78.8z"/>
<path class="st0" d="M82.6,70.8c0-0.8-0.6-1.4-1.4-1.4s-1.4,0.6-1.4,1.4l0,0l0,0v21.3h2.7L82.6,70.8L82.6,70.8"/>
<polygon class="st0" points="17.4,72.5 17.4,92.1 29.8,92.1 29.8,88.8 20.7,88.8 20.7,72.5 "/>
<path class="st1" d="M32.2,14.8L32.2,14.8l-0.1,37.5h21.6V16l0,0l0,0c0-0.8-0.8-1.5-1.8-1.6l0,0l-17-1.2c-0.2,0-0.4-0.1-0.6-0.1
	C33.2,13.1,32.2,13.9,32.2,14.8"/>
<path class="st2" d="M48.5,9.5v49.8l19.3-3.8c0,0-0.1-41,0-42.7s-0.8-2-1.8-2.2c-0.9-0.2-13.6-2.8-15-3.1c-0.2,0-0.4-0.1-0.6-0.1
	C49.3,7.5,48.5,8.1,48.5,9.5"/>
<polygon class="st0" points="48.5,52.3 35,52.3 32.3,52.3 48.5,59.3 48.5,59.3 48.5,59.3 "/>
</svg>
