<?xml version="1.0" encoding="utf-8"?>
<!-- Generator: Adobe Illustrator 25.4.1, SVG Export Plug-In . SVG Version: 6.00 Build 0)  -->
<svg version="1.1" id="Capa_1" xmlns="http://www.w3.org/2000/svg" xmlns:xlink="http://www.w3.org/1999/xlink" x="0px" y="0px"
	 viewBox="0 0 472 400" style="enable-background:new 0 0 472 400;" xml:space="preserve">
<style type="text/css">
	.st0{fill-rule:evenodd;clip-rule:evenodd;fill:#262324;}
</style>
<path class="st0" d="M287.7,306.6c9.5,0.1,28.8,0.4,37.5-1.4c9.2-1.9,19.4-6.7,26.5-12.6c4.1-3.5,6.2-5.3,9.8-9.7
	c9.7-11.7,15-28.5,14-44.6c-0.4-11.1-3.5-19.6-8.4-27.1c-0.6-0.9-1.2-1.7-1.8-2.5c-2.6-3.3-5.7-6.2-9.1-8.8
	c-0.8-0.6-1.7-1.2-2.6-1.8c-1.4-0.9-4.6-2.4-5.5-3.4c0.5-1.2,3.7-4.4,5-6.1c13.4-17,16.4-40.9,8-60.7c-4.6-10.8-12-18.5-20.6-23.9
	c-9.2-5.7-22.5-9.7-35.6-9l-3.6,0.2c-1,3.5-9.9,36.9-9.6,40.4c14.7,0.2,31.6,0.6,35.4,16.6c1.2,5,0.8,10.7-0.7,15.3
	c-2.7,8.2-9.2,14.7-19.3,15.5c-7.5,0.6-26.4,0.9-33.6,0c0-1,4.7-20.2,5.1-21.8c1-4.1,15.6-65,15.5-65.9l-49.5-0.1
	c-0.5,3.3-2.4,11.5-3.1,15.3l-14.3,69.2c-0.1,0.6-0.3,1.3-0.4,1.9c-0.2,1.1,0,1.3-1,1.3c-1.5,0.1-3.2,0-4.8,0
	c-6.1,0-12.2,0.1-18.3,0.1c-6,0-12.6-0.2-18.6,0.1c-0.8,4-8.6,34.3-8.4,35.3l43,0.2c0.2,0.8-13.7,68.7-16.3,82.1
	c-0.3,1.4-1,4.2-1,5.5l42.2,0c2.5-4.4,9.6-38.3,10.8-43.7c2.3-10.8,5.9-28,9-38.7c0.5-1.8,1.3-3.6,1.8-5.2c15,0,36.8-1.1,50.8-0.1
	c10.6,0.8,19.9,5.6,23.8,14.7c4.5,10.3,0.2,21.1-8.1,27.2c-5.2,3.8-12.1,5.7-20.2,5.8c-8.4,0.1-16.8-0.2-25.2-0.6
	c-8.6-0.3-16.7-0.4-25.2-0.2c-2.2,3.5-6.8,24-8.2,30.2c-0.5,2.3-2.2,8.7-2.2,10.6C263,306.4,275.3,306.5,287.7,306.6"/>
<path class="st0" d="M132.8,183.1l-27.4,0.1c-6.4,0-5.2-1-5.8,3.4c-0.8,5.4-1.5,10.7-2.3,16c-0.8,5.3-1.8,10.9-2.3,16.2l30.5,0
	c0.2,6.2-6.9,37.4-8.3,43.9c-1.4,6.8-8.2,37.2-8.6,43.7l39.2-0.1c0.4-0.8,6-24.8,6.3-26.3c6.2-26.3,12.8-52.9,18.8-79.2
	c7.6-33,15.8-65.9,23.5-98.9c0.5-2.2,1.2-4.5,1.6-6.7l-46.7,0c-1.7,7.1-3,14.8-4.4,22.1C145,128.1,135.1,179.8,132.8,183.1"/>
</svg>
