<?xml version="1.0" encoding="utf-8"?>
<!-- Generator: Adobe Illustrator 25.4.1, SVG Export Plug-In . SVG Version: 6.00 Build 0)  -->
<svg version="1.1" id="Capa_1" xmlns="http://www.w3.org/2000/svg" xmlns:xlink="http://www.w3.org/1999/xlink" x="0px" y="0px"
	 viewBox="0 0 799.3 178" style="enable-background:new 0 0 799.3 178;" xml:space="preserve">
<style type="text/css">
	.st0{fill-rule:evenodd;clip-rule:evenodd;fill:#262324;}
</style>
<path class="st0" d="M427.5,146.6c5.1,0.1,15.5,0.2,20.1-0.8c4.9-1,10.4-3.6,14.2-6.8c2.2-1.9,3.3-2.9,5.3-5.2
	c5.2-6.3,8-15.3,7.5-23.9c-0.2-6-1.9-10.5-4.5-14.6c-0.3-0.5-0.6-0.9-1-1.3c-1.4-1.8-3.1-3.3-4.9-4.7c-0.4-0.3-0.9-0.7-1.4-1
	c-0.8-0.5-2.5-1.3-3-1.8c0.3-0.6,2-2.4,2.7-3.3c7.2-9.1,8.8-22,4.3-32.6c-2.4-5.8-6.4-10-11.1-12.8c-4.9-3.1-12.1-5.2-19.1-4.8
	l-1.9,0.1c-0.6,1.9-5.3,19.8-5.2,21.7c7.9,0.1,17,0.3,19,8.9c0.6,2.7,0.5,5.7-0.4,8.2c-1.5,4.4-4.9,7.9-10.4,8.3
	c-4,0.3-14.2,0.5-18.1,0c0-0.6,2.5-10.9,2.7-11.7c0.5-2.2,8.4-34.9,8.3-35.4l-26.6,0c-0.3,1.8-1.3,6.2-1.7,8.2l-7.7,37.2
	c-0.1,0.3-0.1,0.7-0.2,1c-0.1,0.6,0,0.7-0.5,0.7c-0.8,0-1.7,0-2.6,0c-3.3,0-6.6,0-9.8,0.1c-3.2,0-6.8-0.1-10,0.1
	c-0.4,2.2-4.6,18.4-4.5,19l23.1,0.1c0.1,0.5-7.4,36.9-8.8,44.1c-0.2,0.8-0.5,2.3-0.6,2.9l22.7,0c1.4-2.4,5.2-20.6,5.8-23.5
	c1.2-5.8,3.2-15.1,4.8-20.8c0.3-1,0.7-1.9,0.9-2.8c8.1,0,19.8-0.6,27.3,0c5.7,0.4,10.7,3,12.8,7.9c2.4,5.6,0.1,11.3-4.4,14.6
	c-2.8,2-6.5,3.1-10.8,3.1c-4.5,0.1-9-0.1-13.5-0.3c-4.6-0.2-9-0.2-13.6-0.1c-1.2,1.9-3.6,12.9-4.4,16.2c-0.3,1.2-1.2,4.7-1.2,5.7
	C414.2,146.5,420.8,146.6,427.5,146.6"/>
<path class="st0" d="M344.3,80.3l-14.7,0.1c-3.5,0-2.8-0.5-3.1,1.8c-0.4,2.9-0.8,5.7-1.2,8.6c-0.4,2.8-1,5.9-1.2,8.7l16.4,0
	c0.1,3.3-3.7,20.1-4.4,23.6c-0.8,3.7-4.4,20-4.6,23.5l21,0c0.2-0.4,3.2-13.3,3.4-14.1c3.3-14.1,6.8-28.4,10.1-42.5
	c4.1-17.7,8.5-35.4,12.6-53.1c0.3-1.2,0.6-2.4,0.8-3.6l-25.1,0c-0.9,3.8-1.6,7.9-2.4,11.9C350.8,50.8,345.5,78.5,344.3,80.3"/>
</svg>
