<?xml version="1.0" encoding="utf-8"?>
<!-- Generator: Adobe Illustrator 25.4.1, SVG Export Plug-In . SVG Version: 6.00 Build 0)  -->
<svg version="1.1" id="Capa_1" xmlns="http://www.w3.org/2000/svg" xmlns:xlink="http://www.w3.org/1999/xlink" x="0px" y="0px"
	 viewBox="0 0 56.7 56.7" style="enable-background:new 0 0 56.7 56.7;" xml:space="preserve">
<style type="text/css">
	.st0{fill:#2C2C2C;}
	.st1{fill-rule:evenodd;clip-rule:evenodd;fill:#FFFFFF;}
</style>
<ellipse class="st0" cx="28.5" cy="29.3" rx="25" ry="25"/>
<path class="st1" d="M24.7,29.1v15.3c0,0.2,0.2,0.4,0.4,0.4h5.7c0.2,0,0.4-0.2,0.4-0.4V28.9h4.1c0.2,0,0.4-0.2,0.4-0.4l0.4-4.7
	c0-0.2-0.2-0.4-0.4-0.4h-4.5v-3.3c0-0.8,0.6-1.4,1.4-1.4h3.2c0.2,0,0.4-0.2,0.4-0.4v-4.7c0-0.2-0.2-0.4-0.4-0.4h-5.4
	c-3.2,0-5.7,2.6-5.7,5.7v4.5h-2.8c-0.2,0-0.4,0.2-0.4,0.4v4.7c0,0.2,0.2,0.4,0.4,0.4h2.8C24.7,28.9,24.7,29.1,24.7,29.1z"/>
</svg>
