<?xml version="1.0" encoding="utf-8"?>
<!-- Generator: Adobe Illustrator 25.4.1, SVG Export Plug-In . SVG Version: 6.00 Build 0)  -->
<svg version="1.1" id="Capa_1" xmlns="http://www.w3.org/2000/svg" xmlns:xlink="http://www.w3.org/1999/xlink" x="0px" y="0px"
	 viewBox="0 0 56.7 56.7" style="enable-background:new 0 0 56.7 56.7;" xml:space="preserve">
<style type="text/css">
	.st0{fill:#2C2C2C;}
	.st1{fill:#212120;}
	.st2{fill:#FFFFFF;}
</style>
<ellipse class="st0" cx="28.4" cy="28.4" rx="25" ry="25"/>
<path class="st1" d="M88.4,25C88.4,24.9,88.8,25,88.4,25L88.4,25z"/>
<path class="st2" d="M42.6,23.2c0,0.1,0,0.1,0,0.1c0,0.2,0,0.8,0,2.4c-0.6,0-5.1-0.2-7.9-2.8V34c0.1,5.1-2.8,10-7.9,10.8
	c-1.4,0.2-2.8,0.2-4.9-0.2C9,40.8,13.3,21.9,26.1,23.9c0,6.1,0,0,0,6.1c-5.3-0.7-7.1,3.6-5.7,6.7c1.2,2.9,6.6,3.5,8.4-0.6
	c0.2-0.7,0.2-1.7,0.2-2.6V11.8h5.5v-0.1c0,0.6,0.2,7.9,7.9,8.4C42.6,22.1,42.6,23,42.6,23.2z"/>
</svg>
