<svg width="14" height="36" viewBox="0 0 14 36" fill="none" xmlns="http://www.w3.org/2000/svg">
<g clip-path="url(#clip0_242_645)">
<path d="M12.34 1.91619e-05C12.482 -0.00473015 12.623 0.0262147 12.75 0.0900193C12.991 0.199154 13.1789 0.399342 13.2726 0.646744C13.3663 0.894146 13.3582 1.16861 13.25 1.41002L6.27999 16.84L13.28 34.46C13.3286 34.5821 13.3526 34.7127 13.3508 34.8441C13.3489 34.9755 13.3212 35.1053 13.2692 35.226C13.2172 35.3467 13.142 35.456 13.0477 35.5476C12.9535 35.6393 12.8421 35.7114 12.72 35.76C12.5979 35.8086 12.4674 35.8327 12.3359 35.8308C12.2045 35.829 12.0747 35.8013 11.954 35.7493C11.8333 35.6973 11.724 35.622 11.6324 35.5277C11.5408 35.4335 11.4686 35.3221 11.42 35.2L4.09999 16.84L11.43 0.580021C11.5103 0.406441 11.6387 0.259541 11.8 0.156738C11.9613 0.0539361 12.1487 -0.000453844 12.34 1.91619e-05Z" fill="white"/>
<path d="M8.27999 1.53469e-05C8.42516 -0.00392906 8.56917 0.0269318 8.69998 0.0900155C8.94098 0.19915 9.12892 0.399338 9.22263 0.64674C9.31635 0.894142 9.3082 1.1686 9.19998 1.41002L2.19999 16.85L9.19999 34.46C9.2487 34.5821 9.27285 34.7127 9.27107 34.8441C9.26928 34.9756 9.24158 35.1054 9.18957 35.2261C9.13756 35.3469 9.06224 35.4562 8.96794 35.5478C8.87364 35.6394 8.76219 35.7115 8.63999 35.76C8.51787 35.8087 8.38735 35.8329 8.25589 35.8311C8.12443 35.8293 7.99461 35.8016 7.87386 35.7496C7.75311 35.6976 7.64381 35.6223 7.5522 35.528C7.46059 35.4337 7.38848 35.3222 7.33999 35.2L-1.1197e-05 16.84L7.27999 0.580017C7.36611 0.391701 7.50856 0.234768 7.68768 0.130875C7.86681 0.0269815 8.07377 -0.0187415 8.27999 1.53469e-05Z" fill="white"/>
</g>
<defs>
<clipPath id="clip0_242_645">
<rect width="13.34" height="35.83" fill="white" transform="translate(13.34 35.83) rotate(180)"/>
</clipPath>
</defs>
</svg>
