<?xml version="1.0" encoding="utf-8"?>
<!-- Generator: Adobe Illustrator 25.4.1, SVG Export Plug-In . SVG Version: 6.00 Build 0)  -->
<svg version="1.1" id="Capa_1" xmlns="http://www.w3.org/2000/svg" xmlns:xlink="http://www.w3.org/1999/xlink" x="0px" y="0px"
	 viewBox="0 0 40 40" style="enable-background:new 0 0 40 40;" xml:space="preserve">
<style type="text/css">
	.st0{fill:#FFFFFF;}
</style>
<path class="st0" d="M35.2,15.9v-4.7l-4.1-2.3l-2.3-4.1h-4.7L20,2.5l-4.1,2.3h-4.7L8.9,8.9l-4.1,2.3v4.7L2.5,20l2.3,4.1v4.7l4.1,2.3
	l2.3,4.1h4.7l4.1,2.3l4.1-2.3h4.7l2.3-4.1l4.1-2.3v-4.7l2.3-4.1L35.2,15.9z M29,16.5L18.4,27.1c-0.7,0.7-1.7,0.7-2.4,0l-5-5
	c-0.7-0.7-0.7-1.7,0-2.4l1.2-1.2c0.7-0.7,1.7-0.7,2.4,0l2.6,2.6l8.2-8.2c0.7-0.7,1.7-0.7,2.4,0l1.2,1.2C29.7,14.8,29.7,15.8,29,16.5
	z"/>
</svg>
