<?xml version="1.0" encoding="utf-8"?>
<!-- Generator: Adobe Illustrator 25.4.1, SVG Export Plug-In . SVG Version: 6.00 Build 0)  -->
<svg version="1.1" id="Capa_1" xmlns="http://www.w3.org/2000/svg" xmlns:xlink="http://www.w3.org/1999/xlink" x="0px" y="0px"
	 viewBox="0 0 40 40" style="enable-background:new 0 0 40 40;" xml:space="preserve">
<style type="text/css">
	.st0{fill:#242424;}
</style>
<g>
	<path class="st0" d="M33.6,0H6.4C2.9,0,0,2.9,0,6.4v27.1C0,37.1,2.9,40,6.4,40h27.1c3.6,0,6.4-2.9,6.4-6.4V6.4
		C40,2.9,37.1,0,33.6,0z M32.2,29.8H7.8c-0.7,0-1.3-0.6-1.3-1.3c0-0.7,0.6-1.3,1.3-1.3h24.5c0.7,0,1.3,0.6,1.3,1.3
		C33.5,29.2,33,29.8,32.2,29.8z M32.2,21.3H7.8c-0.7,0-1.3-0.6-1.3-1.3c0-0.7,0.6-1.3,1.3-1.3h24.5c0.7,0,1.3,0.6,1.3,1.3
		C33.5,20.7,33,21.3,32.2,21.3z M32.2,12.9H7.8c-0.7,0-1.3-0.6-1.3-1.3c0-0.7,0.6-1.3,1.3-1.3h24.5c0.7,0,1.3,0.6,1.3,1.3
		C33.5,12.3,33,12.9,32.2,12.9z"/>
</g>
</svg>
